<svg width="40" height="40" viewBox="0 0 40 40" fill="none" xmlns="http://www.w3.org/2000/svg">
<g id="uil:chart-line">
<path id="Vector" d="M11.6667 26.6668C12.3297 26.6668 12.9656 26.4034 13.4344 25.9346C13.9033 25.4658 14.1667 24.8299 14.1667 24.1668C14.1748 24.0837 14.1748 24 14.1667 23.9168L18.8167 19.2668H19.5833L22.2667 21.9502V22.0835C22.2667 22.7465 22.5301 23.3824 22.9989 23.8513C23.4677 24.3201 24.1036 24.5835 24.7667 24.5835C25.4297 24.5835 26.0656 24.3201 26.5344 23.8513C27.0033 23.3824 27.2667 22.7465 27.2667 22.0835V21.9502L33.3333 15.8335C33.8278 15.8335 34.3111 15.6869 34.7223 15.4122C35.1334 15.1375 35.4538 14.747 35.643 14.2902C35.8322 13.8334 35.8818 13.3307 35.7853 12.8458C35.6888 12.3608 35.4507 11.9154 35.1011 11.5657C34.7515 11.2161 34.306 10.978 33.8211 10.8815C33.3361 10.7851 32.8334 10.8346 32.3766 11.0238C31.9198 11.213 31.5294 11.5334 31.2547 11.9446C30.98 12.3557 30.8333 12.839 30.8333 13.3335C30.8252 13.4166 30.8252 13.5004 30.8333 13.5835L24.8167 19.6002H24.55L21.6667 16.6668C21.6667 16.0038 21.4033 15.3679 20.9344 14.8991C20.4656 14.4302 19.8297 14.1668 19.1667 14.1668C18.5036 14.1668 17.8677 14.4302 17.3989 14.8991C16.9301 15.3679 16.6667 16.0038 16.6667 16.6668L11.6667 21.6668C11.0036 21.6668 10.3677 21.9302 9.8989 22.3991C9.43006 22.8679 9.16667 23.5038 9.16667 24.1668C9.16667 24.8299 9.43006 25.4658 9.8989 25.9346C10.3677 26.4034 11.0036 26.6668 11.6667 26.6668ZM34.1667 33.3335H5.83333V5.00016C5.83333 4.55814 5.65774 4.13421 5.34518 3.82165C5.03262 3.50909 4.60869 3.3335 4.16667 3.3335C3.72464 3.3335 3.30072 3.50909 2.98816 3.82165C2.67559 4.13421 2.5 4.55814 2.5 5.00016V35.0002C2.5 35.4422 2.67559 35.8661 2.98816 36.1787C3.30072 36.4912 3.72464 36.6668 4.16667 36.6668H34.1667C34.6087 36.6668 35.0326 36.4912 35.3452 36.1787C35.6577 35.8661 35.8333 35.4422 35.8333 35.0002C35.8333 34.5581 35.6577 34.1342 35.3452 33.8216C35.0326 33.5091 34.6087 33.3335 34.1667 33.3335Z" fill="white"/>
</g>
</svg>
